<svg xmlns="http://www.w3.org/2000/svg" viewBox="0 0 1400 760"><defs><radialGradient id="g"><stop stop-color="#eec48a" stop-opacity=".7"/><stop offset="1" stop-color="#dfad79" stop-opacity="0"/></radialGradient></defs><rect width="1400" height="760" fill="#141d23"/><rect x="700" y="95" width="430" height="265" fill="#26333b"/><path d="M700 95h430v265H700Zm145 0v265m145-265v265m-290-130h430" stroke="#10181f" stroke-width="12"/><ellipse cx="620" cy="470" rx="380" ry="255" fill="url(#g)" opacity=".23"/><path d="m160 520 815-36 214 144-1005 35Z" fill="#344044"/><path d="m184 663 1005-35v132H184Z" fill="#1b252b"/><path d="m330 438 240-8 57 115-276 10Z" fill="#1b2328" stroke="#68716d" stroke-width="3"/><rect x="371" y="459" width="125" height="46" rx="4" fill="#899377" opacity=".7"/><circle cx="547" cy="487" r="9" fill="#eac080"/><circle cx="547" cy="487" r="55" fill="url(#g)"/><path d="M384 527h24m16 0h24m16 0h24" stroke="#a5a18b" stroke-width="6"/><path d="m805 760-14-234 91-56 45 290" fill="#0a1117"/></svg>
